<svg width="8" height="16" viewBox="0 0 8 16" fill="none" xmlns="http://www.w3.org/2000/svg">
<path opacity="0.54" d="M5.57812 11.0078C5.57812 10.5807 5.45833 10.2422 5.21875 9.99219C4.98438 9.73698 4.58333 9.5026 4.01562 9.28906C3.44792 9.07552 2.95833 8.86458 2.54688 8.65625C2.13542 8.44271 1.78125 8.20052 1.48438 7.92969C1.19271 7.65365 0.963542 7.33073 0.796875 6.96094C0.635417 6.59115 0.554688 6.15104 0.554688 5.64062C0.554688 4.76042 0.835938 4.03906 1.39844 3.47656C1.96094 2.91406 2.70833 2.58594 3.64062 2.49219V0.820312H4.89062V2.51562C5.8125 2.64583 6.53385 3.03125 7.05469 3.67188C7.57552 4.30729 7.83594 5.13281 7.83594 6.14844H5.57812C5.57812 5.52344 5.44792 5.05729 5.1875 4.75C4.93229 4.4375 4.58854 4.28125 4.15625 4.28125C3.72917 4.28125 3.39844 4.40365 3.16406 4.64844C2.92969 4.88802 2.8125 5.22135 2.8125 5.64844C2.8125 6.04427 2.92708 6.36198 3.15625 6.60156C3.38542 6.84115 3.8099 7.08594 4.42969 7.33594C5.05469 7.58594 5.56771 7.82292 5.96875 8.04688C6.36979 8.26562 6.70833 8.51562 6.98438 8.79688C7.26042 9.07292 7.47135 9.39062 7.61719 9.75C7.76302 10.1042 7.83594 10.5182 7.83594 10.9922C7.83594 11.8776 7.5599 12.5964 7.00781 13.1484C6.45573 13.7005 5.69531 14.026 4.72656 14.125V15.6797H3.48438V14.1328C2.41667 14.0182 1.58854 13.6406 1 13C0.416667 12.3542 0.125 11.4974 0.125 10.4297H2.38281C2.38281 11.0495 2.52865 11.526 2.82031 11.8594C3.11719 12.1875 3.54167 12.3516 4.09375 12.3516C4.55208 12.3516 4.91406 12.2318 5.17969 11.9922C5.44531 11.7474 5.57812 11.4193 5.57812 11.0078Z" fill="black" fill-opacity="0.87"/>
</svg>
